<?xml version="1.0" encoding="iso-8859-1"?>
<!-- Uploaded to: SVG Repo, www.svgrepo.com, Generator: SVG Repo Mixer Tools -->
<!DOCTYPE svg PUBLIC "-//W3C//DTD SVG 1.1//EN" "http://www.w3.org/Graphics/SVG/1.1/DTD/svg11.dtd">
<svg fill="#000000" height="800px" width="800px" version="1.1" id="Capa_1" xmlns="http://www.w3.org/2000/svg" xmlns:xlink="http://www.w3.org/1999/xlink" 
	 viewBox="0 0 388.359 388.359" xml:space="preserve">
<path d="M363.228,345.882c-0.59,5.491-5.514,9.466-11.012,8.873c-8.099-0.87-15.051-2.256-20.662-4.117
	c-16.85-5.584-54.331-5.521-77.119,0.128c-12.8,3.173-30.283,5.067-47.32,5.068c-15.538,0-30.704-1.575-41.623-5.195
	c-16.849-5.586-54.328-5.522-77.119,0.127c-5.813,1.44-12.483,2.607-19.827,3.469c-5.482,0.651-10.453-3.281-11.098-8.766
	c-0.644-5.485,3.28-10.454,8.766-11.098c6.513-0.765,12.35-1.78,17.349-3.019c23.626-5.854,65.67-7.173,88.223,0.302
	c17.155,5.688,54.254,5.544,77.839-0.301c23.623-5.857,65.668-7.174,88.225,0.301c4.206,1.395,9.913,2.507,16.507,3.216
	C359.847,335.46,363.819,340.391,363.228,345.882z M354.355,293.245c-6.594-0.709-12.301-1.821-16.507-3.216
	c-22.557-7.475-64.602-6.158-88.225-0.301c-23.585,5.844-60.684,5.988-77.839,0.301c-22.553-7.475-64.597-6.156-88.223-0.302
	c-4.999,1.238-10.836,2.254-17.349,3.019c-5.485,0.644-9.409,5.612-8.766,11.098c0.645,5.485,5.615,9.422,11.098,8.766
	c7.344-0.861,14.014-2.028,19.827-3.469c22.791-5.649,60.271-5.713,77.119-0.127c10.919,3.62,26.085,5.195,41.623,5.195
	c17.037-0.001,34.521-1.896,47.32-5.068c22.788-5.649,60.27-5.712,77.119-0.128c5.611,1.861,12.563,3.247,20.662,4.117
	c5.498,0.594,10.422-3.381,11.012-8.873C363.819,298.765,359.847,293.834,354.355,293.245z M280.923,73.707
	c0-22.708,18.474-41.183,41.182-41.183s41.182,18.475,41.182,41.183c0,22.707-18.474,41.18-41.182,41.18
	S280.923,96.414,280.923,73.707z M300.923,73.707c0,11.679,9.502,21.18,21.182,21.18s21.182-9.501,21.182-21.18
	c0-11.68-9.502-21.183-21.182-21.183S300.923,62.028,300.923,73.707z M388.359,190.195v5.774v29.946
	c0,22.027-17.92,39.947-39.946,39.947H72.254c-22.026,0-39.946-17.92-39.946-39.947c0-22.026,17.92-39.946,39.946-39.946h201.653
	c2.172-29.635,26.96-53.087,57.14-53.087C362.649,132.882,388.359,158.592,388.359,190.195z M293.972,185.969h74.15
	c-2.106-18.592-17.93-33.087-37.075-33.087S296.078,167.377,293.972,185.969z M368.359,205.969h-84.625H72.254
	c-10.998,0-19.946,8.948-19.946,19.946c0,10.999,8.948,19.947,19.946,19.947h276.159c10.998,0,19.946-8.948,19.946-19.947V205.969z
	 M43.769,175.585l-26.6,27.355c-1.96,2.016-4.563,3.028-7.17,3.028c-2.513,0-5.027-0.94-6.971-2.831
	c-3.959-3.85-4.048-10.181-0.197-14.141l29.545-30.384c0.016-0.017,0.034-0.03,0.05-0.047c0.033-0.033,0.065-0.066,0.098-0.098
	c0.016-0.015,0.028-0.032,0.044-0.047l52.484-51.107c14.985-14.592,38.458-14.59,53.439,0l49.572,48.271h21.441
	c21.506,0,42.104-9.171,56.512-25.161c0.198-0.227,1.635-1.938,8.91-11.693c3.303-4.426,9.568-5.339,13.995-2.038
	c4.427,3.302,5.34,9.567,2.038,13.995c-8.361,11.211-9.569,12.552-10.085,13.124c-18.194,20.192-44.208,31.773-71.37,31.773H43.769z
	 M64.148,155.585h95.249l-34.858-33.943c-7.159-6.972-18.374-6.972-25.533,0L64.148,155.585z"/>
</svg>